<svg width="200" height="100" viewBox="0 0 200 100" fill="none" xmlns="http://www.w3.org/2000/svg">
<path fill-rule="evenodd" clip-rule="evenodd" d="M100 0C86.8678 0 73.8642 2.58655 61.7316 7.61206C49.5991 12.6375 38.5752 20.0035 29.2893 29.2893C20.0035 38.5752 12.6375 49.5991 7.61206 61.7317C2.58655 73.8642 0 86.8678 0 100H25C25 90.1509 26.9399 80.3982 30.709 71.2988C34.4781 62.1993 40.0026 53.9314 46.967 46.967C53.9314 40.0026 62.1993 34.4781 71.2988 30.709C80.3982 26.9399 90.1509 25 100 25C103.283 25 106.534 24.3534 109.567 23.097C112.6 21.8406 115.356 19.9991 117.678 17.6777C119.999 15.3562 121.841 12.6002 123.097 9.56708C124.353 6.53394 125 3.28302 125 0H100ZM100 50.0009C93.5364 50.0399 87.1406 51.3317 81.1671 53.806C75.1008 56.3188 69.5889 60.0017 64.9459 64.6447C61.8495 67.7411 59.1801 71.2239 57 75H100V100C108.453 100 116.852 98.9284 125 96.8246V70.7107C126.245 70.2706 127.479 69.7973 128.701 69.291C133.922 67.1286 138.868 64.3884 143.452 61.1301L161.317 78.9949C164.612 76.4378 167.75 73.6719 170.711 70.7107C173.672 67.7495 176.438 64.6115 178.995 61.3172L161.13 43.4524C164.388 38.8685 167.129 33.9217 169.291 28.7013C169.797 27.4789 170.271 26.2447 170.711 25H196.825C198.928 16.8519 200 8.45264 200 0H175H150C150 6.5661 148.707 13.0679 146.194 19.1342C143.681 25.2005 139.998 30.7124 135.355 35.3553C130.712 39.9983 125.2 43.6812 119.134 46.194C113.068 48.7067 106.566 50 100 50V50.0009Z" fill="white"/>
</svg>
